<?xml version="1.0" encoding="UTF-8" standalone="no"?>
<svg
   xmlns:dc="http://purl.org/dc/elements/1.1/"
   xmlns:cc="http://creativecommons.org/ns#"
   xmlns:rdf="http://www.w3.org/1999/02/22-rdf-syntax-ns#"
   xmlns:svg="http://www.w3.org/2000/svg"
   xmlns="http://www.w3.org/2000/svg"
   xmlns:sodipodi="http://sodipodi.sourceforge.net/DTD/sodipodi-0.dtd"
   xmlns:inkscape="http://www.inkscape.org/namespaces/inkscape"
   width="700"
   height="700"
   viewBox="0 0 185.20833 185.20833"
   version="1.1"
   id="svg8"
   inkscape:version="1.0.2 (1.0.2+r75+1)"
   sodipodi:docname="logo.svg">
  <defs
     id="defs2">
    <style
       type="text/css"
       id="style107">.fil0 {fill:black} .fil2 {fill:black} .fil1 {fill:#CC9933}</style>
  </defs>
  <sodipodi:namedview
     id="base"
     pagecolor="#ffffff"
     bordercolor="#666666"
     borderopacity="1.0"
     inkscape:pageopacity="0.0"
     inkscape:pageshadow="2"
     inkscape:zoom="0.33951472"
     inkscape:cx="219.22944"
     inkscape:cy="531.89537"
     inkscape:document-units="px"
     inkscape:current-layer="layer1-6"
     inkscape:document-rotation="0"
     showgrid="false"
     units="px"
     inkscape:window-width="1920"
     inkscape:window-height="1001"
     inkscape:window-x="0"
     inkscape:window-y="32"
     inkscape:window-maximized="1"
     fit-margin-top="0"
     fit-margin-left="0"
     fit-margin-right="0"
     fit-margin-bottom="0" />
  <metadata
     id="metadata5">
    <rdf:RDF>
      <cc:Work
         rdf:about="">
        <dc:format>image/svg+xml</dc:format>
        <dc:type
           rdf:resource="http://purl.org/dc/dcmitype/StillImage" />
        <dc:title></dc:title>
      </cc:Work>
    </rdf:RDF>
  </metadata>
  <g
     inkscape:label="Livello 1"
     inkscape:groupmode="layer"
     id="layer1"
     transform="translate(-39.687498,-39.687496)">
    <g
       inkscape:label="Livello 1"
       id="layer1-6"
       transform="translate(9.2254322,31.987052)">
      <g
         style="clip-rule:evenodd;fill-rule:evenodd;image-rendering:optimizeQuality;shape-rendering:geometricPrecision;text-rendering:geometricPrecision"
         id="g158"
         transform="matrix(0.00798473,0,0,0.00798473,219.9767,-148.34278)">
        <circle
           style="fill:#073181;fill-opacity:1;stroke-width:51.1424"
           id="path842"
           cx="-12136.979"
           cy="31140.359"
           r="11597.654" />
      </g>
      <path
         id="path113"
         style="clip-rule:evenodd;fill:#ffffff;fill-rule:evenodd;stroke-width:0.00269515;image-rendering:optimizeQuality;shape-rendering:geometricPrecision;text-rendering:geometricPrecision"
         d="m 104.13005,40.332145 c -2.14454,0.0062 -3.88222,1.742495 -3.88818,3.885786 v 19.9362 c 0.006,2.143258 1.74364,3.879509 3.88818,3.885789 2.14456,-0.006 3.88222,-1.742531 3.88818,-3.885789 v -19.9362 c -0.006,-2.143291 -1.74362,-3.879816 -3.88818,-3.885786 z m 37.58574,0.0064 c -1.9418,0 -3.88507,1.293202 -3.89057,3.880207 v 19.936196 c 0.003,2.143985 1.74366,3.881002 3.88898,3.881002 2.14521,0 3.88347,-1.737017 3.88818,-3.881002 V 44.218731 c -0.003,-2.587005 -1.94475,-3.880207 -3.88659,-3.880207 z m 5.93237,11.799331 v 12.017072 c -0.005,3.273664 -2.65838,5.925982 -5.93396,5.925982 -3.27564,0 -5.93209,-2.652318 -5.93476,-5.925982 V 52.141844 h -25.71463 v 12.013083 c 0,3.275596 -2.65723,5.930773 -5.93476,5.930773 -3.27751,0 -5.933957,-2.655177 -5.933957,-5.930773 V 52.141844 h -13.46547 c -7.31759,0.0093 -13.24748,5.935314 -13.2565,13.248527 v 77.580949 c 0.009,7.31336 5.93891,13.23873 13.2565,13.24773 h 49.243907 c -1.21985,-1.2688 -2.33154,-2.63648 -3.3235,-4.08996 h -3.37215 v -6.49865 c -2.67938,-7.08808 -2.67938,-14.90979 0,-21.99793 v -17.21247 h 15.87973 c 8.44652,-3.99759 18.24261,-3.99759 26.68927,0 h 1.66932 v 0.855 c 1.43265,0.79013 2.80073,1.69177 4.09236,2.6958 V 65.386381 c -0.0154,-7.312547 -5.93567,-13.239526 -13.25251,-13.248526 z M 75.566473,80.545895 h 22.62962 v 21.784975 h -22.62962 z m 26.721977,0 h 20.89727 v 21.784975 h -20.89727 z m 24.99043,0.004 h 20.89728 v 21.784965 h -20.89728 z m 24.98963,0 h 19.23593 v 21.784965 h -19.23593 z m 4.23194,24.918645 c -11.80475,0 -22.44673,7.10646 -26.96363,18.00606 -4.51671,10.89964 -2.01809,23.445 6.32956,31.78657 8.34775,8.3417 20.9011,10.83737 31.80651,6.32159 10.90547,-4.51567 18.01492,-15.15228 18.01324,-26.95008 -0.0202,-16.09992 -13.0761,-29.1461 -29.18568,-29.16414 z m -80.933977,0.9531 h 22.62962 v 21.78498 h -22.62962 z m 26.721977,0 h 20.89727 v 21.78498 h -20.89727 z m 53.84831,3.13527 c 3.35335,-0.0497 6.74421,0.572 9.9673,1.90621 9.37634,3.88131 15.48971,13.02666 15.48971,23.16956 -0.0162,13.84351 -11.24153,25.06172 -25.09332,25.07737 -10.14886,0 -19.29866,-6.11032 -23.18233,-15.48094 -3.8836,-9.37074 -1.73617,-20.15679 5.44027,-27.32892 4.70949,-4.70681 10.97652,-7.24867 17.37837,-7.34328 z m 0.36369,2.38635 c -0.18061,0 -0.35817,0.081 -0.47136,0.24804 -0.1295,0.18595 -0.21306,0.52243 -0.50966,1.1852 -0.29925,0.66014 -0.80881,1.64606 -1.47471,2.59451 -0.66589,0.94838 -1.49075,1.85867 -2.21328,2.67507 -0.72251,0.81637 -1.34513,1.53836 -1.79534,2.39512 -0.45291,0.8568 -0.73641,1.85118 -0.77684,2.81305 -0.0404,0.96197 0.16207,1.89165 0.52879,2.72691 0.36662,0.83523 0.82741,1.61926 1.55528,2.71574 2.119,3.19014 2.52141,6.31878 2.67507,10.3629 0.83038,-0.0511 1.65445,-0.0754 2.47407,-0.0782 h 0.0168 c 0.81953,0.003 1.6445,0.0271 2.47487,0.0782 0.15357,-4.04412 0.55524,-7.17276 2.67427,-10.3629 0.72788,-1.09648 1.18862,-1.88051 1.55528,-2.71574 0.36666,-0.83526 0.56924,-1.76494 0.52879,-2.72691 -0.0404,-0.96187 -0.32388,-1.95625 -0.77684,-2.81305 -0.45021,-0.85676 -1.07282,-1.57875 -1.79534,-2.39512 -0.72249,-0.8164 -1.54739,-1.72669 -2.21328,-2.67507 -0.66588,-0.94845 -1.17546,-1.93437 -1.47471,-2.59451 -0.29654,-0.66277 -0.38029,-0.99925 -0.50966,-1.1852 -0.11328,-0.16707 -0.2915,-0.24804 -0.47216,-0.24804 z m -9.71048,16.2187 c -0.1089,-0.001 -0.22661,0.001 -0.35731,0.008 -1.04571,0.054 -2.06894,0.37155 -2.96938,0.98181 -0.84118,0.57125 -1.51023,1.34693 -1.86872,2.32494 -0.35854,0.97808 -0.40369,2.16102 -0.20418,3.27644 0.19952,1.11824 0.64602,2.16895 1.10704,2.98532 0.4637,0.81908 0.94417,1.39887 1.26495,1.34232 0.32089,-0.0593 0.48299,-0.75421 0.77684,-1.48429 0.29385,-0.73296 0.71717,-1.50358 1.66614,-1.78657 0.94894,-0.28289 2.41994,-0.0811 3.617,0.65721 1.20233,0.74366 2.06846,1.98861 2.48365,3.33307 0.49607,-0.0512 0.98934,-0.0926 1.4827,-0.12762 -0.23183,-4.14129 -1.77873,-9.41855 -5.0678,-10.90046 -0.86691,-0.39018 -1.16864,-0.59996 -1.93093,-0.61014 z m 19.42096,0 c -0.76212,0.0101 -1.06241,0.21992 -1.92933,0.61014 -3.28907,1.48191 -4.83753,6.75917 -5.06939,10.90046 0.49338,0.035 0.98742,0.0764 1.48349,0.12762 0.41519,-1.34446 1.28048,-2.59023 2.48285,-3.33387 1.197,-0.73826 2.66963,-0.93928 3.6186,-0.65641 0.94899,0.283 1.37229,1.05361 1.66613,1.78657 0.29388,0.73008 0.4544,1.42498 0.77525,1.48429 0.32084,0.0567 0.80122,-0.52322 1.26495,-1.34232 0.46369,-0.81635 0.90912,-1.86708 1.10863,-2.98532 0.19949,-1.11543 0.15276,-2.29836 -0.20577,-3.27644 -0.35858,-0.97801 -1.02677,-1.75368 -1.86792,-2.32494 -0.90046,-0.61024 -1.92367,-0.92791 -2.96938,-0.98181 -0.1307,-0.007 -0.24923,-0.009 -0.35811,-0.008 z m -90.644457,4.13463 h 22.62962 v 19.8341 h -13.46547 c -5.05817,-0.0154 -9.15738,-4.10339 -9.16415,-9.15856 z m 26.721977,0 h 20.89727 v 19.8341 h -20.89727 z m 54.212,7.55941 c -1.80627,0 -3.6093,0.0787 -4.1107,0.23768 -0.96245,0.30444 -1.64221,1.23656 -1.64221,2.29543 0,1.07772 0.70441,2.01818 1.68847,2.31456 0.55261,0.16443 2.30668,0.25334 4.06444,0.25602 1.75778,-0.003 3.51338,-0.0917 4.06604,-0.25602 0.98403,-0.29638 1.68687,-1.23684 1.68687,-2.31456 0,-1.05887 -0.67896,-1.99099 -1.64141,-2.29543 -0.49875,-0.15898 -2.3052,-0.23768 -4.1115,-0.23768 z m -4.13543,5.14676 c -0.13227,0.50387 -0.30743,0.80549 -0.55272,1.06955 -0.35588,0.388 -0.86222,0.69241 -1.52815,0.76248 -0.6632,0.0701 -1.48771,-0.0923 -2.03223,-0.22412 -0.54188,-0.13211 -0.80656,-0.23137 -0.92518,-0.15313 -0.11869,0.0753 -0.0924,0.3341 -0.016,0.74892 0.0781,0.41499 0.20771,0.98959 0.49609,1.50423 0.12532,0.18865 0.38176,0.35583 0.47775,0.43149 2.73912,1.76747 5.07943,-1.55337 5.48652,-4.02138 -0.46586,-0.0322 -0.93491,-0.0697 -1.40613,-0.11804 z m 8.26926,0 c -0.47128,0.0484 -0.93947,0.0857 -1.40532,0.11804 0.40712,2.46801 2.81444,5.77689 5.55351,4.00941 0.18873,-0.17259 0.33108,-0.25706 0.40996,-0.41952 0.29117,-0.51464 0.4179,-1.08925 0.49609,-1.50423 0.0781,-0.41484 0.10508,-0.67351 -0.0151,-0.74892 -0.11869,-0.0782 -0.38253,0.021 -0.92439,0.15313 -0.5446,0.13212 -1.36982,0.29413 -2.03302,0.22412 -0.66592,-0.0702 -1.1723,-0.3745 -1.52816,-0.76248 -0.24534,-0.26406 -0.42142,-0.56568 -0.55352,-1.06955 z m -6.6438,0.1316 c -0.41244,2.23363 -0.76794,3.34657 -1.88945,5.11405 -0.2561,0.40416 -0.42359,0.75689 -0.32382,1.07753 0.0565,0.28286 0.25384,0.53375 0.58542,0.90285 0.32892,0.37183 0.79581,0.86482 1.30802,1.36865 0.51496,0.50117 1.07257,1.01609 1.45,1.35827 0.38013,0.34485 0.57658,0.51919 0.77604,0.62689 0.20758,0.11328 0.40698,0.17068 0.60376,0.17068 0.19953,0 0.39697,-0.0575 0.60456,-0.17068 0.19952,-0.10789 0.39593,-0.28204 0.77604,-0.62689 0.37743,-0.34218 0.93588,-0.8571 1.4508,-1.35827 0.51226,-0.50383 0.97834,-0.99682 1.30722,-1.36865 0.33158,-0.3691 0.528,-0.61999 0.58462,-0.90285 0.0997,-0.32064 -0.0668,-0.67337 -0.32302,-1.07753 -1.12151,-1.76748 -1.47776,-2.88042 -1.89025,-5.11405 -0.83842,0.0512 -1.67434,0.0786 -2.50199,0.0813 h -0.016 c -0.82768,-0.003 -1.66358,-0.0301 -2.50199,-0.0813 z" />
    </g>
  </g>
</svg>
